PathFileType  4	(X/Y/Z) /dataNAS/people/anoopai/OpenCap/opencap-core/Examples/Data/d712a0c6-d1a0-423f-8dc2-b78d41b5c55e/MarkerData/PreAugmentation
DataRate	CameraRate	NumFrames	NumMarkers	Units	OrigDataRate	OrigDataStartFrame	OrigNumFrames
60.0	60.0	9	20	m	60.0	547	874
Frame#	Time	Neck			RShoulder			RElbow			RWrist			LShoulder			LElbow			LWrist			midHip			RHip			RKnee			RAnkle			LHip			LKnee			LAnkle			LBigToe			LSmallToe			LHeel			RBigToe			RSmallToe			RHeel			
		X1	Y1	Z1	X2	Y2	Z2	X3	Y3	Z3	X4	Y4	Z4	X5	Y5	Z5	X6	Y6	Z6	X7	Y7	Z7	X8	Y8	Z8	X9	Y9	Z9	X10	Y10	Z10	X11	Y11	Z11	X12	Y12	Z12	X13	Y13	Z13	X14	Y14	Z14	X15	Y15	Z15	X16	Y16	Z16	X17	Y17	Z17	X18	Y18	Z18	X19	Y19	Z19	X20	Y20	Z20	

547	9.1000000	-0.7209900	0.0610900	-0.6376700	-0.5678700	0.0703200	-0.7446000	-0.4758600	-0.1995900	-0.7545000	-0.3738800	-0.3955700	-0.6823600	-0.8765200	0.0546100	-0.5243900	-0.6396900	-0.1946900	-0.2172200	-0.7741100	-0.3675000	-0.2482600	-0.1312400	0.0547100	-0.3258800	-0.0736600	0.0485500	-0.4118700	0.1998600	-0.1719000	-0.3077800	0.6468300	-0.2188000	-0.0915300	-0.1845700	0.0623200	-0.2373600	0.1282900	-0.1658700	-0.0574800	0.5583000	-0.2097800	0.0892500	0.6125500	-0.3884000	0.2023200	0.6132400	-0.3898200	0.2026900	0.6327700	-0.2024000	0.1025100	0.7319500	-0.4134500	-0.1002300	0.7317400	-0.4133100	-0.1002400	0.7157800	-0.2054600	-0.0456500
548	9.1166667	-0.7166000	0.0673000	-0.6391900	-0.5621700	0.0759300	-0.7453300	-0.4822500	-0.1971300	-0.7582600	-0.3761200	-0.3970400	-0.6815500	-0.8737100	0.0603300	-0.5266100	-0.6434000	-0.1957600	-0.2214600	-0.7657800	-0.3635500	-0.2445300	-0.1294700	0.0598500	-0.3271900	-0.0730900	0.0535100	-0.4133600	0.2022100	-0.1710300	-0.3074800	0.6468800	-0.2188700	-0.0914700	-0.1816400	0.0677700	-0.2386100	0.1304700	-0.1652800	-0.0568700	0.5589800	-0.2096500	0.0884500	0.6140300	-0.3901000	0.2035800	0.6134600	-0.3891400	0.2031100	0.6332300	-0.2023000	0.1013100	0.7316100	-0.4131700	-0.1000900	0.7313900	-0.4130300	-0.1000900	0.7157800	-0.2055100	-0.0456100
549	9.1333333	-0.7115900	0.0736400	-0.6403900	-0.5568200	0.0817100	-0.7460600	-0.4846700	-0.2009500	-0.7582100	-0.3787800	-0.3970200	-0.6814100	-0.8691700	0.0673700	-0.5282700	-0.6484100	-0.1977400	-0.2257600	-0.7567900	-0.3612500	-0.2414400	-0.1274300	0.0648400	-0.3283400	-0.0725800	0.0580500	-0.4148500	0.2047600	-0.1700700	-0.3071900	0.6470700	-0.2190300	-0.0911900	-0.1780300	0.0732600	-0.2394900	0.1326700	-0.1646300	-0.0562400	0.5598300	-0.2103200	0.0879900	0.6140900	-0.3885900	0.2037400	0.6144200	-0.3890400	0.2038000	0.6340000	-0.2032500	0.1004600	0.7301200	-0.4119000	-0.1004400	0.7298600	-0.4117800	-0.1004600	0.7156100	-0.2057100	-0.0453800
550	9.1500000	-0.7058800	0.0800200	-0.6411800	-0.5518200	0.0874900	-0.7467000	-0.4828000	-0.2093100	-0.7546200	-0.3809800	-0.3976400	-0.6810000	-0.8624000	0.0743400	-0.5291400	-0.6551400	-0.2013800	-0.2296300	-0.7493500	-0.3565300	-0.2373300	-0.1250600	0.0696600	-0.3293300	-0.0719300	0.0620500	-0.4162800	0.2073700	-0.1690100	-0.3069800	0.6472200	-0.2189200	-0.0907600	-0.1737700	0.0787600	-0.2400600	0.1349400	-0.1641100	-0.0555200	0.5604200	-0.2107700	0.0874900	0.6147600	-0.3876600	0.2041000	0.6138900	-0.3858700	0.2034500	0.6346800	-0.2042300	0.0996800	0.7307900	-0.4161600	-0.0988600	0.7304800	-0.4160300	-0.0988900	0.7153300	-0.2060100	-0.0449400
551	9.1666667	-0.6993400	0.0865400	-0.6414900	-0.5471100	0.0935700	-0.7472300	-0.4878500	-0.1924300	-0.7632200	-0.3836800	-0.3973000	-0.6812300	-0.8533600	0.0817000	-0.5291700	-0.6647700	-0.2030300	-0.2368700	-0.7415600	-0.3537400	-0.2340400	-0.1222900	0.0744100	-0.3301800	-0.0711400	0.0662700	-0.4177600	0.2100100	-0.1680700	-0.3068100	0.6478700	-0.2196200	-0.0899000	-0.1690100	0.0843200	-0.2404100	0.1371300	-0.1634400	-0.0548000	0.5608300	-0.2111800	0.0870300	0.6151900	-0.3861600	0.2041900	0.6153400	-0.3860700	0.2041700	0.6351600	-0.2048100	0.0988700	0.7295400	-0.4175600	-0.0984800	0.7292400	-0.4175200	-0.0984800	0.7149500	-0.2063700	-0.0443000
552	9.1833333	-0.6917400	0.0929500	-0.6411900	-0.5423100	0.0994400	-0.7474100	-0.4844400	-0.1877000	-0.7633500	-0.3861100	-0.3977600	-0.6812800	-0.8417700	0.0882500	-0.5281900	-0.6768000	-0.2058800	-0.2445500	-0.7349300	-0.3504400	-0.2306000	-0.1190700	0.0791500	-0.3308700	-0.0697200	0.0702900	-0.4190200	0.2126500	-0.1671600	-0.3066800	0.6481900	-0.2196900	-0.0890600	-0.1638300	0.0895800	-0.2405700	0.1392700	-0.1629800	-0.0540200	0.5612500	-0.2119100	0.0867100	0.6150100	-0.3838300	0.2038200	0.6150600	-0.3835800	0.2037600	0.6358300	-0.2055300	0.0982700	0.7267800	-0.4165000	-0.0991000	0.7264700	-0.4164700	-0.0991100	0.7144300	-0.2067700	-0.0435100
553	9.2000000	-0.6832000	0.0997800	-0.6403700	-0.5371700	0.1047800	-0.7471500	-0.4733100	-0.1943000	-0.7558400	-0.3891300	-0.3974800	-0.6819600	-0.8284700	0.0967000	-0.5265000	-0.6908800	-0.2106100	-0.2517400	-0.7292500	-0.3476200	-0.2274000	-0.1154100	0.0839800	-0.3314400	-0.0676000	0.0745700	-0.4200900	0.2153100	-0.1662300	-0.3065300	0.6482700	-0.2194100	-0.0882200	-0.1586800	0.0954100	-0.2407500	0.1412700	-0.1626500	-0.0532300	0.5617000	-0.2127300	0.0864800	0.6150600	-0.3826400	0.2035400	0.6150700	-0.3823600	0.2034800	0.6365000	-0.2058200	0.0976800	0.7252700	-0.4180300	-0.0987800	0.7249200	-0.4179100	-0.0988300	0.7137500	-0.2072100	-0.0426400
554	9.2166667	-0.6739000	0.1065400	-0.6391400	-0.5320000	0.1106700	-0.7468500	-0.4650300	-0.1881000	-0.7540300	-0.3916300	-0.3989100	-0.6821300	-0.8137900	0.1052900	-0.5242400	-0.7070600	-0.2139400	-0.2618100	-0.7237500	-0.3469900	-0.2251400	-0.1114400	0.0889700	-0.3319200	-0.0648000	0.0791400	-0.4209800	0.2181500	-0.1653200	-0.3062600	0.6485100	-0.2196200	-0.0872300	-0.1535000	0.1006900	-0.2408700	0.1429800	-0.1622200	-0.0525300	0.5618600	-0.2126100	0.0860100	0.6157200	-0.3836000	0.2036800	0.6157000	-0.3833400	0.2036200	0.6374100	-0.2061200	0.0972300	0.7242600	-0.4205200	-0.0981100	0.7239500	-0.4204700	-0.0981400	0.7129200	-0.2076800	-0.0417500
555	9.2333333	-0.6643600	0.1128400	-0.6377500	-0.5269400	0.1163900	-0.7465500	-0.4563200	-0.1797900	-0.7526700	-0.3951400	-0.3989400	-0.6832800	-0.7984500	0.1123300	-0.5216500	-0.7242900	-0.2196800	-0.2702500	-0.7203600	-0.3443800	-0.2221000	-0.1073000	0.0941200	-0.3324000	-0.0614600	0.0841900	-0.4217900	0.2212700	-0.1645000	-0.3057500	0.6484800	-0.2194500	-0.0863600	-0.1486800	0.1062900	-0.2411400	0.1444200	-0.1621600	-0.0518700	0.5623200	-0.2127800	0.0857300	0.6150100	-0.3833400	0.2030900	0.6149800	-0.3831100	0.2030300	0.6382000	-0.2058000	0.0966800	0.7223200	-0.4211000	-0.0981000	0.7220300	-0.4210600	-0.0981400	0.7120600	-0.2081700	-0.0408600
